name C:\Users\tom_v\MusculoskeletalSpecialization_revisited\Results\Case_14\motion.mot
datacolumns 32
datarows 8
range 0.00000000 0.03931160
endheader 
time	pelvis_tilt	pelvis_list	pelvis_rotation	pelvis_tx	pelvis_ty	pelvis_tz	hip_flexion_r	hip_adduction_r	hip_rotation_r	knee_angle_r	ankle_angle_r	subtalar_angle_r	mtp_angle_r	hip_flexion_l	hip_adduction_l	hip_rotation_l	knee_angle_l	ankle_angle_l	subtalar_angle_l	mtp_angle_l	lumbar_extension	lumbar_bending	lumbar_rotation	arm_flex_r	arm_add_r	arm_rot_r	elbow_flex_r	arm_flex_l	arm_add_l	arm_rot_l	elbow_flex_l	
          0.00000000	         -8.12481520	         -2.08843520	          0.25333015	          0.00000000	          0.95251522	         -0.00079508	         41.37711877	          6.06401330	          4.04601219	        -36.47658276	          1.69660406	         -7.70851855	          0.26592868	          2.54949661	         -2.83156527	         -0.62894069	        -47.85526520	        -15.05605041	         10.82956537	         12.73674205	        -10.09321506	          5.10188000	         -2.70316724	         -7.09881878	        -11.00591863	         -9.69006382	         57.48172820	         -3.01022590	        -21.12298507	         18.99026988	         62.21962206	
          0.00561594	         -8.06605140	         -2.11815597	          0.32444876	          0.01933627	          0.94984817	         -0.00062896	         40.73618699	          6.43290773	          4.56434425	        -37.82022052	          4.38143509	         -7.92583083	          0.81786368	          3.53588426	         -2.96359286	         -0.78594187	        -49.48263656	        -13.64826344	         10.78353594	         11.84814166	         -9.97986420	          5.17013540	         -2.58662884	         -6.13394001	        -11.44752420	         -8.66515440	         54.51150504	         -2.29878190	        -20.26086880	         18.77641835	         59.07703712	
          0.01123189	         -8.01284004	         -2.14284320	          0.39029883	          0.03849976	          0.94723400	         -0.00045331	         39.97537913	          6.78243186	          5.03251791	        -38.94227090	          6.85711599	         -8.20425563	          1.53001928	          4.64905538	         -3.08326223	         -0.95563628	        -51.16782210	        -12.12286110	         10.67845118	         11.01964488	         -9.88524838	          5.21991244	         -2.45802943	         -5.07410899	        -11.90554091	         -7.43990439	         51.42510342	         -1.51595467	        -19.35690683	         18.48723828	         55.78074408	
          0.01684783	         -7.96708135	         -2.16656382	          0.44747247	          0.05740715	          0.94478863	         -0.00026403	         39.19847903	          7.12013535	          5.44832157	        -39.97707675	          9.11258908	         -8.51237098	          2.26821103	          5.88342127	         -3.18724150	         -1.12309055	        -52.88191515	        -10.49475637	         10.52151332	         10.24785017	         -9.82175109	          5.25482309	         -2.31845136	         -3.90838216	        -12.37042353	         -5.99697025	         48.25457395	         -0.65337254	        -18.41362944	         18.10603719	         52.35066027	
          0.02246377	         -7.92918724	         -2.18911836	          0.49759061	          0.07604579	          0.94259464	         -0.00006045	         38.44416091	          7.44693893	          5.81601786	        -40.97533940	         11.06249993	         -8.83953099	          3.03150088	          7.22073300	         -3.27513493	         -1.28711103	        -54.57967082	         -8.78438593	         10.31391400	          9.52876485	         -9.79092902	          5.27347163	         -2.17094098	         -2.65468820	        -12.82879554	         -4.33696781	         45.06106741	          0.28170595	        -17.44047466	         17.61914761	         48.82640289	
          0.02807972	         -7.89893601	         -2.20550361	          0.54281061	          0.09444933	          0.94069978	          0.00015026	         37.69580911	          7.75287602	          6.14085769	        -41.91297400	         12.69035574	         -9.17045010	          3.83164494	          8.63734616	         -3.34302493	         -1.45189240	        -56.21384287	         -7.01041616	         10.06174087	          8.85920730	         -9.78794071	          5.27085528	         -2.01712964	         -1.35544910	        -13.26923378	         -2.47980698	         41.93825737	          1.26659943	        -16.45201665	         17.01161625	         45.27452492	
          0.03369566	         -7.87599789	         -2.21254668	          0.58461130	          0.11266802	          0.93912366	          0.00035930	         36.91843505	          8.02780790	          6.42887943	        -42.74700856	         14.06130998	         -9.48080886	          4.66182006	         10.11231661	         -3.38880152	         -1.62164381	        -57.75043893	         -5.18657124	          9.76902112	          8.23573750	         -9.80603621	          5.24493534	         -1.85658437	         -0.06676310	        -13.68612701	         -0.46252369	         39.00273404	          2.26644391	        -15.46716097	         16.26498274	         41.79015878	
          0.03931160	         -7.86005413	         -2.20846162	          0.62432275	          0.13074676	          0.93786970	          0.00056072	         36.08562540	          8.26338760	          6.68396668	        -43.44575136	         15.23159982	         -9.75128165	          5.51797592	         11.63001985	         -3.41189950	         -1.79886203	        -59.16898321	         -3.33728176	          9.43931984	          7.65572930	         -9.83994344	          5.19479277	         -1.68909088	          1.15307801	        -14.08033817	          1.66433824	         36.37922959	          3.23897442	        -14.50900795	         15.35878185	         38.49141099	
